<svg width="40" height="40" viewBox="0 0 40 40" fill="none" xmlns="http://www.w3.org/2000/svg">
  <!-- Фоновая форма -->
  <circle cx="20" cy="20" r="19" fill="#1e1e2e" stroke="#a21caf" stroke-width="2"/>
  
  <!-- Стилизованный элемент Anemo (ветер) - 4 лепестка -->
  <path d="M20 6C20 6 22 10 20 14C18 10 20 6 20 6Z" fill="#48BB78"/>
  <path d="M20 26C20 26 22 30 20 34C18 30 20 26 20 26Z" fill="#48BB78"/>
  <path d="M6 20C6 20 10 22 14 20C10 18 6 20 6 20Z" fill="#48BB78"/>
  <path d="M26 20C26 20 30 22 34 20C30 18 26 20 26 20Z" fill="#48BB78"/>
  
  <!-- Центральный элемент -->
  <circle cx="20" cy="20" r="8" fill="#f8f4ff" stroke="#a21caf" stroke-width="1"/>
  <circle cx="20" cy="20" r="4" fill="#a21caf"/>
  
  <!-- Дополнительные декоративные элементы -->
  <circle cx="20" cy="20" r="2" fill="#f8f4ff"/>
</svg> 